# xmcd
#
# Track frame offsets: 
#        150
#        13242
#        32895
#        71552
#        90411
#        122460
#        142864
#        166822
#        196377
#        234252
#
# Disc length: 3604 seconds
#
# Revision: 1
# Processed by: cddbd v1.5.2PL0 Copyright (c) Steve Scherf et al.
# Submitted via: ExactAudioCopy v1.3
#
DISCID=770e120a
DTITLE=Hármasfogat - Blues
DYEAR=2019
DGENRE=
TTITLE0=Laza kapcsolat
TTITLE1=Crossroads
TTITLE2=Give Me Some Love and Sex
TTITLE3=Ítéletnap blues
TTITLE4=Piramis blues
TTITLE5=Everyday I Have The Blues
TTITLE6=Spoonful
TTITLE7=Sleepy Time Time
TTITLE8=Vissza a városba
TTITLE9=Call me
EXTD=
EXTT0=
EXTT1=
EXTT2=
EXTT3=
EXTT4=
EXTT5=
EXTT6=
EXTT7=
EXTT8=
EXTT9=
PLAYORDER=
